<svg width="24" height="24" viewBox="0 0 24 24" fill="none" xmlns="http://www.w3.org/2000/svg">
<g clip-path="url(#clip0_172_2147)">
<path d="M11.9999 2C6.47986 2 1.99986 6.48 1.99986 12C1.99986 17.52 6.47986 22 11.9999 22C17.5199 22 21.9999 17.52 21.9999 12C21.9999 6.48 17.5199 2 11.9999 2ZM11.9999 5C13.6599 5 14.9999 6.34 14.9999 8C14.9999 9.66 13.6599 11 11.9999 11C10.3399 11 8.99986 9.66 8.99986 8C8.99986 6.34 10.3399 5 11.9999 5ZM11.9999 19.2C9.49986 19.2 7.28986 17.92 5.99986 15.98C6.02986 13.99 9.99986 12.9 11.9999 12.9C13.9899 12.9 17.9699 13.99 17.9999 15.98C16.7099 17.92 14.4999 19.2 11.9999 19.2Z" fill="white"/>
</g>
<defs>
<clipPath id="clip0_172_2147">
<rect width="24" height="24" fill="white"/>
</clipPath>
</defs>
</svg>
